<?xml version="1.0" encoding="UTF-8"?>
<svg version="1.1" viewBox="0 0 36.02 36.02" xmlns="http://www.w3.org/2000/svg">
 <path d="m18 36a18 18 0 1 1 18-18 18 18 0 0 1-18 18zm0-34a16 16 0 1 0 16 16 16 16 0 0 0-16-16.01z"/>
 <path d="m17.105 22.986h-2.7677c-0.2688-1.1514-1.481-2.0939-1.9788-2.715-0.99298-1.2391-1.5869-2.8117-1.5869-4.5231 0-3.9975 3.2406-7.2381 7.2381-7.2381 3.9975 0 7.2381 3.2406 7.2381 7.2381 0 1.7123-0.59461 3.2856-1.5885 4.5251-0.49753 0.6203-1.7086 1.5618-1.9772 2.713h-2.7677v-4.5238h-1.8095zm4.5238 1.8095v0.90476c0 0.9994-0.81012 1.8095-1.8095 1.8095h-3.619c-0.99937 0-1.8095-0.81012-1.8095-1.8095v-0.90476z"/>
</svg>
