<?xml version="1.0" encoding="UTF-8"?>
<svg width="1291.5" height="1051.2" version="1.1" viewBox="0 0 1291.5 1051.2" xmlns="http://www.w3.org/2000/svg">
 <g fill="none" fill-rule="evenodd">
  <path d="m206.4 196.86 7.6 12.665 35.045 115.26v23.644l3.8 17.31-42.645 23.221 46.445 96.262 25.333-4.644-5.91 17.31 56.578-8.022 11.4-3.8 22.8-18.998 39.268-10.134 44.334 19.844 14.357-21.11v-17.31l21.11-24.91-2.11-32.51 24.91-24.487-13.51-8.022 69.284-72.639-11.44-25.733 1.267-10.977-3.376-15.2 4.221-13.51 8.867-8.443v-9.711l-9.289-2.956-36.312 9.288-19 14.355-9.288-3.378-33.78 0.845-15.41-6.42v0.72l-9.711 5.066-8.234-5.276-28.078-16.89v-8.865l-14.78-21.532 4.434-11.61 1.479-7.389-10.345-3.167-5.277-10.766h-19.213l-39.69 20.056-22.378 1.477-17.734 12.665h-11.612l-15.2 10.978-9.288 1.689-26.762 11.497z" fill="#b5daf7"/>
  <g fill="none">
   <path d="m206.395 196.483 7.6 12.642 35.045 115.04v23.597l3.8 17.278-42.645 23.176 46.445 96.078 25.333-4.635-5.91 17.276 56.578-8.006 11.4-3.792 22.8-18.962 39.267-10.115 44.334 19.806 14.357-21.07V437.52l21.11-24.863-2.11-32.447 24.912-24.44-13.512-8.008 69.285-72.5-11.44-25.683 1.267-10.957-3.376-15.17 4.22-13.484 8.868-8.428v-9.692l-9.289-2.95-36.312 9.27-19 14.328-9.289-3.371-33.779.843-15.411-6.409v.72l-9.71 5.056-8.235-5.267-28.077-16.856v-8.85l-14.78-21.49 4.434-11.588 1.479-7.374-10.346-3.161-5.277-10.746H351.22l-39.688 20.017-22.38 1.475-17.733 12.641h-11.612l-15.2 10.956-9.288 1.687-26.763 11.475zm580.425 408.47-3.168 4.565-2.04 3.582v3.09l1.618 3.231 3.59 3.582 5.136-.562 4.293-3.16 1.055-4.917-.28-3.3-3.238-4.706-2.464-1.897zm79.519 78.66 6.756-3.512 7.6-.562 2.252 4.074-1.407 4.635-6.897 4.214h-7.741l-.563-3.371-3.237-1.123zm43.349 24.441 4.222 3.511 2.815 1.546 6.897-1.968 1.547 4.496-6.332 5.619-9.15 1.264-7.6-7.234 2.112-4.706zm-29.978 11.377 5.348 4.214.562 6.742-4.362 4.215h-5.208l-4.362-4.215v-6.18l1.97-4.776h4.996zm-21.675 35.397 10.134-2.81h9.852v5.338l-2.956 4.074-2.04 3.09h-4.434l-6.615-4.214-2.251-.702zm-1.548 16.996 10.274-2.248 6.263 1.125 8.093 4.494 3.237 5.478-3.096 5.62-3.942 1.123-7.88-5.197-5.349-2.81-6.052-.912zm32.089 13.485 6.193 1.405 1.97 3.23.845 4.073-2.393 3.091h-2.815l-3.8-5.057v-3.933zm62.35-4.074 4.926 3.09v3.934l-1.83 2.949-4.786-1.826-3.096-4.916 1.126-2.247zm28.148-12.922 8.022 2.81 7.32 4.073-.704 6.04-3.8 2.809-9.852-1.405-5.49-4.916-1.97-7.304 2.955-2.107zm-9.57-24.793-.845-7.374 4.926-4.073 6.615-3.09 2.674 3.933-.704 6.742-8.163 6.883h-2.814zm30.682-71.285.844-12.36 5.207-.844 1.267 5.057 5.489 1.546v7.585l-6.404.702zm8.444 11.799 4.364 5.76 5.77 8.006-1.97 4.776h-6.194l-4.785-7.024-3.8-5.478 1.126-4.073zm111.469-119.044h14.99l17.1 3.162 10.554 12.22 5.068 2.738 7.6 2.318-1.69 10.746-7.177 3.581-6.334-5.688-8.022-10.324-4.433 2.738-1.9 7.375-7.178-3.16-11.612-8.323-6.966-10.85z"/>
   <path d="m1277.38 53-17.102-21.703 26.602-11.377-4.646-16.645-44.334 15.38-26.811-15.38-9.712 10.746 6.334 1.053-19.423 25.705-64.812 21.913 11.19 10.956-24.068 20.016-1.9 7.796-16.888-24.02-8.023 35.186-28.5 13.906-10.556-5.267-2.955.421-3.59 11.8-93.523 41.717 2.533 20.226-2.955 6.11v14.644l6.755 9.587v12.22l9.71 10.114 10.557-.21 9.923 7.162 2.956 9.692 7.177 5.268-.634 21.28 6.968-.631 3.378 12.43-27.657 20.227-17.522.843-7.178 5.057-21.534 46.564-135.114-49.936-25.544-24.44.28-1.082-62.137-7.346-5.911 19.384-46.867 45.932-12.245-.843-8.023-2.95-7.177 8.428 3.8 4.214 1.266 8.428-5.066 7.374 11.822-2.317 10.556 2.317 22.8 26.127-24.7 72.69 7.389 24.44v23.177l4.644 14.75 14.779 8.849h38.845l3.378 34.132h16.467l2.63 23.697 18.692.533 9.289-13.906 33.145.632 16.256-1.685 2.744-7.796-9.923-8.428 5.068-5.268 4.01-14.116 20.268-1.686 2.322-4.214 11.19-1.685 2.743 4.425 8.234 5.899-15.2 17.067-21.323 29.919 8.867 9.48.845 4.004-21.535 5.056-4.855 12.22-18.155 13.907-3.38 15.802 2.535 4.003 8.233-.422 6.123-3.581 2.955-9.481 7.811-5.057 13.511-2.318 5.067-8.006 10.978-3.582-1.266-9.27 29.978 4.003 4.855-2.318 21.956-13.485 18.368-10.534.844 17.065-5.067 7.165 1.056 6.321 9.5 3.16v10.535l-6.967 8.849-.634 8.217h20.9c1.901 0 13.301 10.956 13.301 10.956l8.445 1.054 19.845 18.33 7.177-2.106 1.267-5.058-4.434-4.845-9.288-8.639.634-17.276-14.567-9.482-2.111-7.165 4.222-1.684 3.8-3.793 14.356-5.69 1.477-8.216-8.233-2.107-5.489 5.057-8.867-1.896-9.29 11.587-7.599 2.107-8.234-5.899-5.7-9.482 10.344-5.477 4.012-3.582-1.69-7.163-6.966-1.264-2.955 4.845-7.178 1.054-.211-15.802 7.39-1.686 10.765 6.32 14.99-.42 13.511-9.271 11.823 1.686 9.289-4.214 1.9-6.111 4.855-.21-.845 6.952 4.434 1.476 3.8-8.218 2.534 4.636-6.545 9.06 1.9 16.433 13.3-.631 4.856 4.845.21 8.64 9.29-.844 2.533 2.53-8.022 4.845-1.477 1.686 2.11 10.956 21.111-16.013 4.223-8.64 1.9 26.76 8.233-6.11 2.534-19.175 14.356-26.547 9.71 2.95 1.901-3.792-13.3-21.281-3.8 1.475.211 7.796h-3.378l-6.755-9.903-7.39-20.016 16.257-17.909 14.143-.632.423 9.06-11.822 17.277 4.433 2.95 5.91-8.85 5.702-8.007 1.9-6.952 2.533-1.475 2.322 5.9 13.722-3.582-8.655-1.475-1.267-3.793 6.545-6.742-23.434-26.127v-6.532l9.289 6.111-3.8-8.85 1.267-3.16 25.544 33.29 3.378-1.474.634-13.274 2.744-4.635h10.344l-22.589-24.44.211-3.584 8.656 1.686 1.478-2.528-6.122-7.164 3.8-1.053 1.478-4.003-9.079-3.16 2.534-10.114-1.478-6.11-8.655-.632-.212 13.062h-10.766l-1.479-16.434h-10.978l-2.744-5.267-1.9-8.428-13.511-1.053.422-5.479-9.5-2.107.845-10.323 10.978-1.475 20.9 17.066-2.534 4.004 1.69 5.267 8.022-2.529 4.855-10.324 1.69-7.795-9.923-7.796-10.556-8.007 1.055-19.805 5.49-7.585 10.345-1.264 8.655 16.012 24.912 1.686 13.933 10.745 9.077 2.53 3.59-4.215-4.644-8.849v-8.639l3.589-10.534 10.766-4.214-.844-5.478-23.646-.212-5.277-3.582-.21-5.899 26.388.21 2.745 4.005 4.644 1.264 6.756-5.69 1.69-5.056-1.69-9.27-18.366-20.228 27.233-.421 2.111 8.428 6.756.421 4.011-3.792-.423-5.268-3.378-4.214 11.4-3.792 12.668-1.686.21 7.164-9.499 2.95-1.478 3.582 2.322 3.371 15.834-1.686 2.533-2.738 9.923-13.696.845-12.431-20.057-34.344-19.844-1.053-3.378 2.528-18.79-1.264-21.955 18.12-7.179-3.37 5.278-11.38 5.278-9.059 6.967-3.581 17.523-1.476 1.477 5.057 6.756.633 16.256-7.375 9.711-5.689-9.5-12.642 10.767-.21.21-5.69 6.545-1.053-1.055-5.267-1.267-22.965 9.078-26.127 24.49-1.264v-3.792l23.645-5.69 4.644-15.17-26.811-16.856 10.555.212.21-31.395-10.977-6.952 31.667-31.183-7.81.21ZM46.792 928.442l-1.266 5.267 4.222 2.108h6.333v-3.688zm-4.011 13.484-1.266 8.429 4.01 3.581 3.8-2.528 4.434-9.482zm124.347 45.721-4.012 18.7-5.805 11.43-8.762 12.642 3.589 11.167 7.178 5.689 1.478-2.95 20.479-18.33 5.91 8.006 6.123 1.053 5.277-4.846 1.056-6.953-7.177-3.16.844-11.378-10.556-13.484-8.656-5.689zm69.104-1.755v-7.164l9.43-10.816 5.489-5.479h7.318l3.942 4.215 5.207-2.107v-8.568h9.289l5.63 3.932v14.187l-3.519 8.008-3.237-.141-3.378-4.776-4.222-.14-1.408 4.073-5.348 11.939-7.459 1.404-12.527-1.404-3.94-2.95zm243.556-110.756-1.69 4.845 1.69 5.268h5.49l4.01-4.003-4.01-6.11zm63.123-10.956 2.956 7.163-1.478 9.692-3.589 9.271 2.533 10.745 8.023 7.375 4.856-1.475 5.278-10.325 5.066-11.377-2.111-8.85-10.766-7.795-3.378-5.478zM506.6 962.153l2.533 4.846 11.189-1.054 9.711-3.792h7.179L542.7 967l2.744 1.686v25.775l3.8-1.967 4.433-6.742 7.811-.421 2.534-4.214 7.178.632 2.534 3.371 5.066-2.317v-9.061l7.178-.421 3.378 3.371v6.11l-6.123 3.793-.422 8.849 4.223 3.371 2.322 4.635-2.322 5.478-10.135 7.375h-9.288l-15.412-10.324-4.222-5.9-7.177 4.635-6.756.633-6.545-.633-.21 9.272-13.3 7.585-5.068 1.895-3.589 3.583h-9.29l-6.755-7.375 3.167-4.424 5.067-.843 4.855.632v-2.95l-7.6-1.897.423-36.66-2.534-2.108-.844-2.949 11.61-8.217zm-22.906-52.463 5.595 14.327 6.755 12.431-.844 6.532-1.267 4.003-10.24 1.896v23.599l-.949 8.216-16.678-1.474-5.489-20.649-8.867-8.427v-8.007l-9.079-8.428-9.077-.422-2.533-10.744-6.967-2.53v-8.637s6.545-4.214 7.6-4.214c1.056 0 6.333 1.264 6.333 1.264l1.9-4.004 2.744 4.004 1.056 6.742 3.378 4.214-2.955 8.85.633 4.845 5.7-4.846h5.489l5.278-1.686-7.177-8.849-6.334-1.054-1.9-8.216 1.478-10.746 8.444 1.474 1.478 3.161-.423 9.271-1.688 2.107 2.744.421 3.167-5.688 22.695 1.264Zm-275.61-81.118-20.127 2.81.14-9.271-1.828-3.583-5.841-1.615-11.19-1.123 12.949-7.165 18.155-2.948 3.38 6.881 5.91 1.827-1.548 14.187Zm232.014-47.197-4.433-1.896-.845 5.69-18.366 4.845-4.644-3.37-13.724-.634-.632-8.637 5.278-3.793-.212-5.056-.633-6.954 9.289 1.475 7.178 4.215 5.488-3.373.423-7.163-10.344-3.16-13.09-.843-2.533-7.584 3.173.186-10.562-9.036-21.533 10.114h-13.934l-12.891-15.823.223 5.71 4.434 6.32-3.167 2.106-14.355-12.43 1.267-5.268 7.867-1.018-.373-.457-16.361-1.262v3.58l-6.967 3.16-3.8 5.268h-5.279l-1.688-29.708 8.867-1.264 3.378 18.54-1.267-18.54L320.396 686l-7.177-39.048h-11.4l-27.023 17.698h-15.412l-14.988 12.642-5.912 15.17h-15.199v4.635l-6.968 3.793-5.066 4.425 2.11 8.427 2.956 6.11 9.29.949h5.488l6.756-7.27 2.322-5.688 5.49 6.11v9.481l-5.068 7.374 10.345 12.221-1.055 5.056-5.278 1.264-13.09-13.062-2.322 3.37.422 14.75-32.405 25.283 2.005 3.792 10.133 3.161h10.134l5.912-4.214 12.033-.421 2.744 6.742v9.06l-5.91 4.214-6.334-2.74h-13.724l-18.366 2.74-29.978 7.796h-11.19l-5.277-5.057-7.39 5.057-7.6 4.214-5.488 3.371h-4.222l-2.533 5.478h-5.912l-12.245-10.746-10.978-1.474-1.688-9.903 2.744-.843 3.588 4.425 9.29.21 3.589-5.268-.211-9.69-6.334-2.318-6.122 2.738-5.278 2.528-2.745-5.056 5.701-1.053.422-4.847-2.533-1.264.21-10.113 4.223-4.846V755.25l-8.023-6.744-6.317-.63-.108.26-1.386 3.953-.246.034-3.508 8.567 1.855-.174 8.866 12.432-2.11 9.691-2.957-3.37-7.6-1.686-4.855 9.481 2.533 15.17-.633 10.536-9.5 2.528-5.068-7.585-17.31-2.95-4.434 2.529v6.531l13.09 1.896 2.532 4.636-5.91 5.056-1.479 7.375s5.912 5.899 6.545 5.899c.634 0 5.91-5.9 5.91-5.9l7.39-11.166 6.966 3.792 1.056 4.846-7.177 1.896v9.482l12.244.843 4.434 10.534-16.467 14.749-1.478 5.267 1.688 7.796 16.679 15.592 9.077-7.586-1.899-12.22 4.644 1.476 4.223 13.063 5.278-.422 1.266-3.371-2.534-6.953 14.145-.21 2.322-2.95 7.179-.21 5.489 23.386 4.433 21.913h-11.4l-3.166 4.424.421 8.85 4.856 5.688 16.467-.21 1.055-10.535 8.022-2.318 8.235 9.06 9.711-.21 12.666-4.846-2.322-5.268-2.534-5.689.212-19.384 10.344 4.635 5.7-2.528-.632-6.11-5.49.632-2.744-4.004 3.8-7.163 1.478 1.896 3.377 1.054-.421-8.428-3.801-2.739-10.344 12.01-1.9-20.86s-9.923.632-10.556.211c-.634-.422 1.267-12.01 1.267-12.01l23.855-3.793 1.056-5.477.21-14.539 16.68-4.213 13.088 15.17 17.1-10.324 2.112 2.95-21.956 19.173 12.666 2.74-18.577 10.955 21.744 33.501 17.1-17.698-.21 6.742-3.379 7.796 6.968 5.056 10.133-3.371 2.112-8.639-.423-6.32 9.5-10.746.633-41.506 21.745 14.537-7.6 3.582-6.756-1.897-1.266 30.762-5.49 1.897-4.643 5.056.843 3.371-3.166 10.535-5.7 12.642 11.4 5.478 14.356 1.686v-5.478l8.867-8.006s0-6.532-.21-7.165c-.213-.631.21-8.849.21-8.849l6.334-2.107 2.533-8.85 4.644-5.266 6.122 1.475 9.922 8.849 2.322 8.85h8.445l1.9-6.533 2.323-2.107 2.322 6.743 6.122 7.164h6.755l-2.533-4.214v-5.9h14.567l1.056 10.114 10.345 10.534 12.245 6.321 2.955-1.686-6.333-7.585-4.856-8.85-1.9-14.326 13.089-16.013 3.166-12.43 10.979-8.85-1.056-18.752-11.61.42.42 15.171-4.643 1.054-8.867-12.22-13.3-17.278-4.223-13.274 3.8-1.264 4.645-3.582 10.978 9.903 32.933 17.699 31.668-29.92-15.412-11.378.211-4.635Z"/>
   <path d="M766.27 908.426c1.056.21 8.023-1.264 8.023-1.264l1.69-3.582s2.743 1.054 3.377 1.264c.633.21 4.222 5.689 4.222 5.689l-3.377 6.531-6.968-2.74-8.656-2.948 1.69-2.95Zm20.479 32.236 8.233 2.318 6.123 4.845.844 5.69-3.8 1.054-2.744-3.161-18.157-.422v-5.056l2.745-5.268zm2.85-24.652 10.24-7.585v-19.383l5.065-3.266h10.346l4.644 5.584v18.962l1.9 5.689-3.59 3.16-7.177 2.318 1.478 4.845-2.956 2.53-12.245-2.108zM766.27 730.387l8.585 3.09 5.63 3.09v8.288l-.562 4.495-4.645 1.545h-7.882l-7.88-9.41-2.534-4.917 1.83-3.653 3.799-2.528zm54.89 1.686 6.475-1.123 4.363 3.23 2.11 7.585 1.126 9.13-1.829 5.198h-7.741l-3.237-4.074 2.533-4.916 1.83-2.248-.562-6.04-4.364-2.81zm215.337 49.162 9.993 9.973v5.9l-2.533 2.388-7.46-4.495-9.57-8.147 2.956-4.355zm3.237 28.795 6.756 7.866-1.97 5.057-8.585 5.478-2.252-1.545.844-16.855zM842.22 926.967s12.93-10.166 13.089-10.377c.158-.21 10.133-3.95 10.133-3.95s3.958.632 4.116.737c.159.106 3.167 2.37 3.273 2.581.105.21-1.003 6.742-1.003 6.742l-8.18.896-5.859 3.687-8.55 2.897-4.698-.421-2.322-2.792Zm110.043 31.043c.14-.211 10.204-8.147 10.204-8.147l6.895-3.441 2.674 4.776-3.377 6.811-6.509 7.235-9.887 1.615-1.478-5.058 1.478-3.792Zm-138.28-116.796 7.037-.984 3.237 3.793 3.66 7.585 1.688 1.685h7.038l2.954-7.304-7.177-4.635-2.111-4.355 6.334-5.618h3.94l3.66-5.479h4.644l1.267 4.075 13.37.28.564-2.668 5.066-.703 1.97 3.091 11.54 1.123 4.223 3.792 6.756-3.65 9.992-3.935 2.112 7.164-2.392 4.074-12.808 7.865-4.363 6.883-2.112 8.006-.421 8.148h4.081l9.852-6.882 9.852-6.041 6.474-4.495 3.66-3.23 6.614-1.826 3.238-6.462 17.31-.42 3.801-.564 2.251-2.387 2.535 1.405v4.073s2.25 3.09 2.533 3.09c.282 0 9.007 1.124 9.007 1.124l-1.97 4.776-9.43 7.445-13.37 5.197-7.319 4.354-7.179 2.388h-16.888l2.393 10.254 9.57-1.405.422-2.247 7.6-.562L942.2 888.55l3.94 8.849-.28 12.922-.424 11.09-3.377 5.767-5.49 5.197-8.022 2.81-6.474-3.231-9.57-11.8-3.66-5.337h-5.067l-13.51-17.84-7.882-8.146-6.896-3.055-6.897 2.634-7.741 5.197-5.63.281h-12.104l-3.94-4.073-9.15-1.125s-2.813-3.651-2.813-4.776c0-1.123-.564-8.99-.564-8.99l-4.855.984-4.434 4.635-11.664.422-7.618-3.231-4.221-8.427 1.266-5.9 5.911-6.461 5.49-4.635 4.503-6.603 2.956-4.494Z"/>
   <path d="M878.02 820.846v4.214l5.63 3.372h2.675l.844-3.794v-3.792l-6.615-.983zm-392.954-118.06-10.556-.843-14.144 12.43-3.167-.657-5.686 20.52 4.42 5.211-8.867 17.699 1.476 5.688 9.924 6.532h11.61l5.279-5.689 7.81-9.27-3.799-7.375-11.824-6.11 3.167-3.371 11.612.422 7.388-2.74 8.657-4.846 7.389-6.32 7.6-4.004 2.745-5.477-10.133-5.058z"/>
   <path d="m795.615 802.867.634-13.907-4.434-2.317-6.544.632-.845 12.641-7.811 6.743 4.011 8.428-10.345 5.268.212-8.217 3.589-10.956 2.322-18.331-4.857-11.8-9.5-6.742-10.343 4.004-12.034 10.534 2.956 8.428 4.644 8.006-17.944 1.476-8.234 13.274-10.346 4.002h-15.621s-5.49-7.163-5.7-8.427c-.212-1.265 1.055-5.478 1.055-5.478l5.912-2.107 4.855 5.9h10.345l1.267-9.271h3.167l1.054-4.635 4.645-.422 3.8 2.74h6.756l3.166-5.268-1.9-4.425h-15.2l-2.11-4.425-4.645-8.638-5.278-5.689 2.956-4.004.422-2.738-3.589-3.16-.212-13.064 3.8-4.846 9.078-6.531-10.133-11.379-.633-14.959-2.957-13.694-8.867-7.586v-6.32l11.824 2.106 5.277-4.003.633 10.956.423 7.796 4.433 5.267-3.165 4.846-2.113 7.164 5.49 8.85 5.277 6.952 2.746-3.792 9.92-.843 5.49 11.167h5.278l-.845-14.96 9.924-1.264 4.433-6.953 7.6-6.321 7.81-7.374-1.266-24.02-3.378-8.849-8.445.21-6.332 7.165-5.278.843-4.856-6.321-10.345 1.474-1.267 13.274-5.489 3.16.634 8.85-5.912 2.107-3.8-8.218-1.267-12.43 4.433-4.003 8.235-11.589 13.723-1.264 7.81 8.428 6.334-6.11-2.534-3.792-3.8-3.583 3.379-4.213-.634-5.478-5.7.842-6.122 8.638h-10.345l1.478-10.744-4.223-6.954-19.633-9.691-.422-8.218 3.166-4.425 20.716.591-5.093-12.811-3.095-14.327-16.609 3.37 1.689-33.149-33.78 1.124-14.917-3.09-8.445-8.428-3.097-14.608-5.066-44.948-43.91 50.847-29.838-19.665-8.082 12.753c3.97 5.825 11.36 16.734 11.67 17.658.422 1.264-1.267 11.588-1.267 11.588l-10.978 10.535 6.544 15.802 10.345 2.739 6.966 4.846-5.277 40.243-2.956-5.9-7.177-10.535-4.857-6.742-11.189-.842-6.754-4.214-3.8 2.739-.845 7.374-4.012 4.636-8.233-2.108-9.5-6.32-5.7 5.267-8.235 2.74 13.725 12.851 9.076 5.9 11.4 7.374-6.333 11.377-13.934 1.054-4.855 9.06-7.811 2.107-9.71 9.903-12.457 4.424-9.289.212-.938 3.433-.176 1.246 8.503 2.484 12.244 8.639 21.956 8.428 15.834 15.38 12.878 6.532 12.245 1.686 6.333-8.007-1.056-7.164s-3.8-6.11-4.644-6.952c-.844-.844-3.59-5.479-3.59-5.479l8.446-10.535 6.966-9.06-5.066-8.638-5.067-4.213 6.544-1.897 3.59-6.321 8.866-3.16 3.589 8.848 2.745 8.85-5.278 6.952 2.956 5.69 6.755-5.057v8.85l12.245 3.58 5.489-2.948 10.133-.422 2.745-4.846 19.844-.633-7.6 12.853 15.623 3.582.844 15.591h-16.677l-2.534 5.057-7.39 2.318 2.745-8.218-5.912-3.16.212-16.013-6.755-.42-1.9 13.694-17.523 2.95 2.533 5.689 2.956 4.845-6.756-.21-2.744-2.739-3.59 5.268-14.355.421-8.445 22.334-6.967-2.528-18.788 22.333-1.479 20.016 10.557 1.897 6.543 2.528-5.066 8.006-5.489 6.742.845 31.816 6.334-1.054 3.588-13.695 14.778-2.317 4.435 9.903 3.8 14.115 8.654 4.425.422-8.006-4.643-7.796 4.22-4.635-2.11-3.793-7.389-4.635-2.11-6.532 9.71-.421 21.323 24.862 7.39 3.372.843-6.11-4.223-11.589-.844-6.953 4.011-7.374-7.6-11.378 8.022 1.686 5.701 10.534-1.267 12.853 4.856 1.264 2.322-2.95 4.645-2.318 1.9 4.425 5.91 17.698 6.967.422 10.767-5.057 1.69 24.652-12.879 9.692-10.766-4.846 4.012 10.956 1.054 9.691-19.21 12.853-.635 8.218-6.755 5.477-11.4 1.054-3.8 14.539-10.134 3.581 3.379 6.953 18.366 2.318-3.8 8.849-6.544.632-1.688-3.582h-12.246l-.633 9.902 6.333 2.95 4.433-4.214 5.912 1.264-7.178 7.586 4.433 7.795 12.878.422 1.056 6.743-4.433 1.685-7.813 1.475-4.01 7.163 8.022 16.224 5.7 2.528 5.067-9.902 4.012-7.586 5.7-2.317 13.3 5.268 6.755-1.264 13.089-16.014 5.49 1.897 16.044 1.896 3.166 4.635h18.79l6.756-3.16 1.054-8.217-2.32-.843-1.267-9.482-9.501-1.685-6.122-3.793 1.9-7.584-2.534-7.375 2.956-7.585 6.545-1.054 4.01 8.64h4.434l3.378-10.325.634-9.06 5.7 5.9 6.755 2.106 3.166-6.953 3.379 6.11 10.767 4.636 18.578-6.953 7.81-6.11-1.477-7.164-11.189-6.531-2.744-11.378-6.966-2.529-12.246 1.686-7.811-10.745-3.801-4.636-5.91 2.528-.844-3.581-6.968-.633-3.589 6.322-12.032-6.532-8.657-6.532-.634-14.538-3.377-.42-14.145 2.738-.21-17.487 11.188 5.9 3.589-1.054 12.667-5.268 5.7-1.264 14.989 13.905 30.19.843 5.91-26.969 5.701 2.739 1.9 7.585-4.011 7.585v6.111l4.644 2.739.423 6.531-2.745 2.528-.422 7.796h7.81l.634-13.484-2.11-6.11 16.044-12.432h20.69l6.121-3.37 4.434-5.267v-18.542l-11.4-10.324-2.745-4.846Z" stroke="#0072c6"/>
   <path d="m446.854 189.74-5.912 5.69v8.849l-.982.511 11.469 3.071 46.642 3.446 29.922-14.122 27.17-6.81 7.735 6.249-10.135 14.607-3.377 12.361 3.94 16.294-1.125 7.305 12.284 26.91-43.811 43.884-25.052 27.53 9.851 11.8-25.896 25.635 4.504 6.952.563 15.17-12.386 25.285-10.133 6.18 2.25 17.417-11.82 19.103-.563 19.104 9.007 6.18 9.57 9.867-1.051 15.91 6.47 4.844 12.878 21.28 10.767-.42-.633 6.53-7.812 8.007-3.166 8.427 1.478 13.274 10.767.21 1.267-7.162 4.221-11.588 15.833-8.85 5.702-15.802v-28.444l13.932-2.107 5.912 8.006.21 7.796-7.177 8.429-1.267 7.794 4.01 3.793 6.125-3.793 5.91-8.217-.21-8.849 1.266-7.375 6.756 4.425s2.384 3.48 5.192 7.622l5.082-15.067 30.963 18.542 40.886-49.443 23.293-70.232v-12.923l-23.293-22.474-22.138 1.894 5.826-6.977v-8.14l-4.307-4.195 6.755-10.114 4.543 5.006 13.982 1.163 44.529-38.756 8.443-12.36v-14.609l64.671 5.433 15.554-60.074-4.012-3.792 6.968-38.978v-11.168l-2.113-17.593-32.51-27.285-46.025 1.264-3.8-6.742-22.166 5.057-4.643-11.378-6.124-5.056s-9.922 4.635-10.134 4.002c-.21-.631-14.143-20.858-14.143-20.858l3.8-3.583-4.223-10.744-6.967-15.381-4.222-12.01-3.167-.843-2.321 3.793-6.968 4.846-2.322 9.692-13.09-1.265-7.178-10.324-9.921-6.953-3.8-6.742h-21.112l-2.955 4.846-8.234 6.11-2.111-3.582-8.867.843-1.056 6.321-8.233 5.057-10.133-3.793-5.49 3.16-.844 8.85-12.455 20.647H497.1l-11.4 9.272-20.056-1.054-4.645 9.903-4.644 5.689v12.22l-9.5 10.324-2.746 14.327-4.433 9.692-1.9 13.907 9.078-2.53v2.95ZM153.616 685.93l-.844 11.8-7.389 6.742-2.323 8.217 5.278 8.112v18.646l7.6 5.268h16.678l2.323-11.167-4.223-8.006 1.69-2.74 8.022-2.001v-12.326l-8.233-11.799-4.223-9.481-4.433-2.95z"/>
   <path d="M181.905 599.334v15.381l-3.484 4.635-3.482-2.528 6.966-17.488ZM14.702 346.71l2.745 27.39 4.223 39.61 10.344 31.185 3.379 29.075 25.333-26.547 2.956 1.474-10.346 18.12-1.477 8.85 1.69 6.953-2.957 3.16-2.533 57.309 6.544 2.107 5.912 5.267 1.9 14.328-13.934 3.793-1.478 13.062-.633 7.375 3.378.843 4.222-6.11.423-8.007 5.488-.21 3.379 6.742-.634 9.903 16.467 6.742 16.255 9.482 16.046 14.537 9.288 12.642-1.266 17.067 3.377 4.213.634 4.214h-11.612l-9.711 6.742-12.878 5.478-26.81 19.385-6.335 6.11h-4.645l-7.388 8.849-6.334 16.224 6.546 12.01 9.5 10.534 12.877 15.17 12.112-1.134 1.147-8.262-3.97.547-5.278-3.371v-6.742l9.5-7.691 6.333-7.48-3.8-13.484-4.854-5.268 12.243-3.581 2.533-5.058 14.357-2.107 7.177-9.27 12.879-9.903 11.4-6.32 5.278-11.378-.211-11.8h10.766l-1.266 11.167 4.433 8.008-2.321 3.16h-5.701v6.953h14.99l2.743-6.953 6.334 4.846 14.144.632 2.323 10.745 5.277 7.796 2.745 3.16 9.712-4.635 4.643-1.896 1.057-12.22 7.388 1.896 2.534 8.217v1.642l15.095-1.01 20.688-26.337 12.563.948 13.933-10.745-2.64-12.22-5.91-8.85s-6.36-5.546-6.147-6.178c.21-.632-6.52-36.487-6.52-36.487l-4.223-20.86-26.283-21.175 21.956-60.997-46.164-100.29 44.897-22.756-5.91-19.384.844-18.541-23.646-83.858-13.934-39.61-7.177-8.85.669-11.798h-13.97l-2.11 11.588-39.901 34.555-24.278 44.034-12.456 4.425-6.333-6.11-3.166 1.054-4.434 3.581-10.133-1.053-30.401-15.381-34.201-20.016-8.023 3.37-4.01 22.967-9.079 5.268 4.434 19.594 7.388 55.835Z"/>
   <path d="m236.232 548.767 19.563-57.73 3.59-8.85h20.478l-3.8 15.17 43.49-7.584 24.489-4.635 23.644-21.492 40.112-8.006 44.334 18.12v18.54l16.467 12.642-3.589 15.803-1.477 52.463-8.445 5.057-6.334 10.113 6.756 4.635 1.055 8.217-3.166 5.689 8.023 1.475 7.177 13.274v14.96l3.167 5.688-6.123 4.214.845 9.482 2.745 10.746.21 7.373 8.023 5.9-1.267 6.32-11.61 1.897.421 8.006-.422 6.953-11.611.843-2.744 8.218 10.133 2.106-9.234 19.411-2.166-2.555-4.222 2.739 1.055 11.167-8.445 7.585-8.656-6.742-6.966-13.695 12.666-21.492-6.122-3.37-11.189 15.38-11.188 4.425-1.9-10.114 1.055-5.899-3.378-.422-.423 11.167 1.69 8.428-2.534 9.693 6.122 3.37-.632 1.265-17.946-4.32-12.245.211-7.388 5.795-9.184-.106-11.927-3.687-4.434-6.322-.423-10.744-25.756-1.686-3.377-18.542 8.867-16.118-6.017-22.017-4.75-21.07-27.129 9.376-4.327-19.595-14.04-12.537-2.532-38.346-1.056-11.905z"/>
  </g>
  <g stroke="#0072c6" stroke-width="5.063">
   <path d="m153.62 685.93-0.844 11.8-7.389 6.742-2.323 8.217 5.278 8.112v18.646l7.6 5.268h16.678l2.323-11.167-4.223-8.006 1.69-2.74 8.022-2.001v-12.326l-8.233-11.799-4.223-9.481-4.433-2.95z"/>
   <path d="m344.041 744.715-14.355-12.431 1.266-5.268 11.401-1.474.422 10.745 4.433 6.32-3.167 2.108Zm-21.956-16.856-6.966 3.16-3.8 5.268h-5.278l-1.69-29.708 8.867-1.264 3.378 18.54h5.49v4.004Zm-72.2 20.227-5.279 1.264-13.088-13.063-2.322 3.37.422 14.75-32.407 25.284 2.007 3.792 10.133 3.16h10.133l5.911-4.214 12.034-.42 2.744 6.741v9.06l-5.911 4.214-6.334-2.74h-13.722l-18.367 2.74-29.977 7.796h-11.19l-5.278-5.057-7.389 5.057-7.6 4.214-5.49 3.371h-4.222l-2.533 5.478h-5.91l-12.245-10.746-10.978-1.474-1.69-9.903 2.745-.843 3.589 4.425 9.289.21 3.59-5.268-.213-9.69-6.332-2.318-6.123 2.738-5.278 2.528-2.744-5.056 5.7-1.053.421-4.847-2.533-1.264.211-10.113 4.223-4.846V755.25l-8.022-6.743-6.334-.632-1.477 4.214-6.123.842-5.277-3.37v-6.743l9.5-7.69 6.333-7.48-3.8-13.484-4.856-5.267 12.245-3.582 2.533-5.057 14.356-2.107 7.178-9.27 12.877-9.903 11.401-6.321 5.279-11.378-.213-11.8h10.768l-1.267 11.168 4.434 8.006-2.323 3.16h-5.7v6.954h14.989l2.745-6.954 6.333 4.847 14.145.632 2.322 10.745 5.278 7.796 2.744 3.16 9.711-4.634 4.645-1.897 1.055-12.22 7.39 1.895 2.533 8.218v6.742l-6.967 3.793-5.067 4.425 2.111 8.427 2.956 6.11 9.289.949h5.489l6.756-7.27 2.322-5.688 5.489 6.11v9.481l-5.066 7.374 10.344 12.222-1.056 5.056Zm-41.8 80.486-20.127 2.81.14-9.272-1.829-3.582-5.84-1.615-11.19-1.123 12.949-7.164 18.155-2.95 3.378 6.882 5.91 1.827-1.547 14.187Zm-26.18-229.237v15.38l-3.483 4.636-3.483-2.528 6.967-17.488ZM1277.38 52.999l-17.1-21.701 26.6-11.378-4.644-16.645-44.335 15.38-26.81-15.38-9.712 10.745 6.333 1.054-19.423 25.705-64.811 21.912 11.189 10.957-24.068 20.016-1.899 7.795-16.89-24.02-8.022 35.187-28.501 13.905-10.555-5.266-2.956.42-3.589 11.8-93.523 41.717 2.533 20.228-2.956 6.11v14.643l6.755 9.587v12.22l9.712 10.113 10.556-.21 9.923 7.164 2.955 9.692 7.178 5.267-.634 21.28 6.967-.631 3.379 12.43-27.656 20.227-17.523.843-7.179 5.057-21.533 46.564-135.113-49.935-25.545-24.44 16.256-62.788-4.012-3.794 6.967-38.978v-11.167l-2.111-17.593-32.512-27.286-46.022 1.265-3.8-6.742-22.168 5.056-4.644-11.377-6.123-5.057s-9.921 4.636-10.133 4.004c-.211-.633-14.144-20.86-14.144-20.86l3.8-3.581-4.223-10.746-6.967-15.38-4.222-12.01-3.167-.843-2.322 3.792-6.967 4.846-2.322 9.692-13.09-1.264-7.178-10.323-9.92-6.954-3.802-6.742h-21.111l-2.956 4.846-8.233 6.11-2.111-3.582-8.867.843-1.056 6.32-8.233 5.058-10.133-3.792-5.489 3.159-.845 8.85-12.455 20.648H497.1l-11.4 9.271-20.055-1.054-4.644 9.904-4.646 5.688v12.22l-9.5 10.324-2.745 14.328-4.433 9.692-1.9 13.905 9.079-2.528v2.95l-5.912 5.689v8.85l-9.71 5.055-8.235-5.266-28.078-16.857v-8.85l-14.777-21.49 4.433-11.587 1.477-7.375-10.344-3.16-5.278-10.747H351.22l-39.69 20.016-22.378 1.476-17.733 12.641h-11.612l-15.2 10.957-9.29 1.685-28.5 12.221h-15.412l-2.11 11.588-39.9 34.554-24.279 44.036-12.455 4.424-6.334-6.11-3.167 1.053-4.433 3.583-10.134-1.054-30.4-15.38-34.2-20.017-8.024 3.371-4.01 22.966-9.08 5.267 4.434 19.595 7.39 55.835 2.745 27.39 4.221 39.61 10.346 31.184 3.377 29.077 25.334-26.548 2.955 1.474-10.344 18.12-1.478 8.85 1.689 6.953-2.955 3.16-2.534 57.309 6.544 2.107 5.911 5.268 1.9 14.327-13.932 3.792-1.479 13.064-.633 7.374 3.378.842 4.222-6.11.422-8.006 5.49-.21 3.377 6.742-.634 9.902 16.468 6.743 16.256 9.48 16.044 14.539 9.29 12.642-1.267 17.066 3.378 4.214.633 4.214h-11.611l-9.712 6.742-12.878 5.479-26.811 19.383-6.334 6.11h-4.645l-7.388 8.85-6.334 16.223 6.545 12.01 9.5 10.535 12.878 15.17 13.511-1.265 8.867 12.432-2.111 9.692-2.955-3.372-7.6-1.685-4.857 9.481 2.534 15.17-.633 10.536-9.5 2.528-5.067-7.585-17.312-2.95-4.433 2.529v6.532l13.089 1.895 2.533 4.636-5.91 5.056-1.478 7.375s5.91 5.9 6.544 5.9c.633 0 5.911-5.9 5.911-5.9l7.39-11.167 6.966 3.792 1.056 4.846-7.179 1.896v9.482l12.245.843 4.433 10.535-16.466 14.748-1.478 5.268 1.69 7.795 16.677 15.592 9.078-7.586-1.9-12.22 4.645 1.476 4.221 13.062 5.279-.421 1.266-3.371-2.533-6.953 14.145-.21 2.322-2.95 7.177-.21 5.49 23.386 4.433 21.912h-11.4l-3.167 4.424.422 8.85 4.856 5.69 16.467-.211 1.056-10.535 8.022-2.318 8.233 9.06 9.712-.21 12.667-4.846-2.323-5.268-2.533-5.689.21-19.384 10.346 4.635 5.7-2.528-.634-6.11-5.489.632-2.744-4.004 3.8-7.163 1.477 1.897 3.38 1.053-.424-8.428-3.8-2.739-10.345 12.009-1.899-20.858s-9.922.631-10.556.21c-.633-.422 1.266-12.01 1.266-12.01l23.857-3.793 1.055-5.477.211-14.539 16.678-4.213 13.09 15.17 17.1-10.324 2.11 2.95-21.955 19.173 12.667 2.74-18.578 10.955 21.744 33.5 17.1-17.697-.21 6.742-3.378 7.796 6.967 5.056 10.133-3.371 2.111-8.639-.422-6.32 9.5-10.746.634-41.506 21.744 14.538-7.6 3.581-6.755-1.897-1.268 30.762-5.489 1.897-4.644 5.056.845 3.371-3.167 10.535-5.7 12.642 11.4 5.478 14.356 1.686v-5.478l8.867-8.006s0-6.532-.211-7.165c-.211-.631.21-8.849.21-8.849l6.334-2.107 2.533-8.85 4.645-5.267 6.123 1.476 9.922 8.849 2.322 8.85h8.445l1.9-6.532 2.321-2.107 2.324 6.742 6.122 7.164h6.755l-2.533-4.214v-5.9h14.567l1.055 10.114 10.345 10.534 12.244 6.321 2.956-1.686-6.334-7.585-4.855-8.85-1.9-14.327 13.09-16.012 3.166-12.43 10.978-8.85-1.055-18.752-11.612.42.423 15.171-4.645 1.054-8.867-12.22-13.3-17.278-4.222-13.274 3.8-1.264 4.644-3.581 10.978 9.902 32.934 17.699 31.668-29.919-15.412-11.378.211-4.635-4.433-1.897-.845 5.69-18.368 4.845-4.644-3.37-13.722-.633-.634-8.638 5.278-3.793-.21-5.056-.634-6.954 9.29 1.476 7.177 4.214 5.489-3.373.423-7.163-10.346-3.16-13.089-.843-2.533-7.584 7.177.42 1.057-2.106-6.123-3.372 2.533-9.692-1.688-8.428.422-11.167 3.378.422-1.056 5.9 1.9 10.113 11.19-4.425 11.188-15.381 6.123 3.371-5.489 9.692-7.178 11.8 6.967 13.695 8.655 6.742 8.445-7.584-1.056-11.168 4.223-2.739 6.966 8.217-8.867 17.698 1.478 5.69 9.922 6.53h11.612l5.278-5.688 7.812-9.27-3.801-7.375-11.823-6.11 3.167-3.37 11.612.42 7.388-2.74 8.656-4.845 7.39-6.321 7.6-4.003 2.744-5.478-10.134-5.057-20.9-6.742-10.555-.843-14.145 12.432-10.134-2.107 2.744-8.218 11.612-.842.422-6.954-.422-8.006 11.611-1.897 1.268-6.32-8.024-5.9-.21-7.374-2.744-10.745-.845-9.482 6.122-4.214-3.167-5.689v-14.959l-7.178-13.274-8.022-1.474 3.167-5.69-1.055-8.217-6.756-4.635 6.333-10.113 8.445-5.057 1.477-52.463 10.978 8.217 12.879 21.28 10.766-.421-.633 6.531-7.811 8.007-3.167 8.428 1.477 13.274 10.767.21 1.267-7.164 4.222-11.588 15.834-8.85 5.7-15.801v-28.444l13.934-2.107 5.91 8.006.211 7.796-7.177 8.428-1.266 7.796 4.01 3.792 6.123-3.792 5.91-8.217-.21-8.85 1.266-7.374 6.756 4.424s1.172 1.71 2.843 4.162c4.043 5.937 11.004 16.224 11.302 17.119.422 1.264-1.267 11.588-1.267 11.588l-10.978 10.535 6.545 15.802 10.344 2.74 6.967 4.845-5.277 40.243-2.956-5.9-7.178-10.534-4.856-6.742-11.19-.843-6.755-4.214-3.8 2.74-.844 7.373-4.012 4.635-8.233-2.106-9.5-6.321-5.7 5.268-8.233 2.738 13.722 12.853 9.078 5.899 11.4 7.375-6.333 11.377-13.934 1.054-4.855 9.06-7.812 2.106-9.711 9.903-12.456 4.425-9.29.21-1.266 4.635 8.656 2.53 12.245 8.637 21.956 8.428 15.833 15.381 12.878 6.532 12.245 1.685 6.334-8.006-1.056-7.163s-3.8-6.111-4.644-6.954c-.845-.842-3.59-5.478-3.59-5.478l8.445-10.534 6.967-9.06-5.067-8.639-5.067-4.214 6.545-1.897 3.589-6.32 8.866-3.16 3.59 8.849 2.744 8.85-5.278 6.952 2.956 5.688 6.756-5.056v8.85l12.244 3.581 5.49-2.95 10.133-.42 2.745-4.846 19.843-.633-7.6 12.852 15.624 3.582.843 15.592h-16.678l-2.533 5.056-7.39 2.317 2.746-8.216-5.912-3.16.212-16.013-6.756-.422-1.9 13.696-17.523 2.949 2.533 5.69 2.956 4.845-6.755-.21-2.744-2.74-3.59 5.268-14.356.42-8.444 22.335-6.967-2.529-18.79 22.334-1.477 20.017 10.556 1.895 6.544 2.53-5.066 8.006-5.49 6.742.845 31.815 6.334-1.053 3.589-13.696 14.777-2.318 4.434 9.903 3.8 14.117 8.655 4.425.423-8.007-4.644-7.795 4.221-4.637-2.11-3.792-7.39-4.635-2.11-6.531 9.711-.421 21.322 24.861 7.39 3.371.843-6.11-4.222-11.588-.844-6.953 4.01-7.375-7.6-11.377 8.024 1.685 5.7 10.535-1.267 12.853 4.855 1.264 2.322-2.95 4.645-2.317 1.9 4.424 5.911 17.699 6.968.42 10.766-5.055 1.69 24.65-12.88 9.693-10.765-4.847 4.01 10.957 1.056 9.692-19.211 12.853-.634 8.217-6.756 5.478-11.4 1.053-3.8 14.538-10.134 3.582 3.378 6.954 18.368 2.317-3.8 8.85-6.545.63-1.69-3.58h-12.244l-.634 9.902 6.334 2.95 4.434-4.214 5.912 1.264-7.179 7.585 4.434 7.796 12.878.42 1.056 6.743-4.434 1.686-7.812 1.475-4.01 7.164 8.021 16.223 5.7 2.529 5.068-9.903 4.011-7.585 5.7-2.318 13.3 5.268 6.756-1.265 13.088-16.012 5.49 1.896 16.044 1.896 3.167 4.636h18.79l6.755-3.16 1.056-8.219-2.322-.843-1.267-9.48-9.5-1.686-6.122-3.792 1.899-7.586-2.533-7.374 2.956-7.586 6.545-1.052 4.01 8.638h4.433l3.378-10.324.634-9.06 5.7 5.9 6.756 2.106 3.166-6.952 3.378 6.11 10.766 4.634 18.579-6.952 7.81-6.11-1.477-7.164-11.189-6.532-2.745-11.377-6.966-2.528-12.245 1.685-7.81-10.745-3.8-4.636-5.912 2.529-.844-3.582-6.968-.632-3.588 6.321-12.034-6.532-8.656-6.531-.633-14.538-3.377-.422-14.145 2.74-.211-17.489 11.189 5.9 3.588-1.054 12.668-5.267 5.7-1.265 14.988 13.907 30.19.843 5.911-26.969 5.7 2.739 1.9 7.585-4.01 7.585v6.11l4.643 2.74.423 6.531-2.745 2.528-.421 7.796h7.81l.633-13.485-2.11-6.11 16.044-12.431h20.69l6.122-3.371 4.433-5.268v-18.542l-11.4-10.323-2.745-4.846.634-13.906-4.433-2.318-6.545.633-.845 12.641-7.81 6.742 4.01 8.429-10.345 5.267.212-8.218 3.59-10.956 2.321-18.33-4.856-11.8-9.5-6.741-10.344 4.002-12.034 10.535 2.955 8.429 4.646 8.006-17.945 1.474-8.234 13.274-10.344 4.004h-15.623s-5.489-7.164-5.7-8.428c-.212-1.264 1.055-5.478 1.055-5.478l5.912-2.108 4.855 5.9h10.346l1.266-9.27h3.167l1.054-4.636 4.646-.42 3.8 2.738h6.755l3.167-5.268-1.9-4.424h-15.2l-2.111-4.425-4.644-8.638-5.279-5.69 2.956-4.002.422-2.74-3.588-3.16-.213-13.063 3.801-4.846 9.078-6.532-10.133-11.377-.634-14.959-2.955-13.696-8.867-7.585v-6.32l11.822 2.106 5.278-4.003.634 10.956.421 7.796 4.434 5.268-3.167 4.845-2.111 7.165 5.489 8.849 5.278 6.953 2.745-3.794 9.921-.842 5.49 11.167h5.278l-.845-14.96 9.922-1.264 4.434-6.952 7.6-6.322 7.811-7.374-1.266-24.019-3.378-8.85-8.445.211-6.333 7.163-5.278.843-4.856-6.32-10.345 1.475-1.266 13.274-5.49 3.16.635 8.848-5.912 2.108-3.8-8.217-1.266-12.43 4.433-4.005 8.233-11.587 13.723-1.266 7.811 8.429 6.333-6.11-2.533-3.793-3.8-3.582 3.378-4.214-.634-5.478-5.7.843-6.121 8.639h-10.346l1.479-10.746-4.223-6.953-19.634-9.692-.421-8.216 3.165-4.425 36.946 1.053 9.289-13.906 33.145.633 16.256-1.687 2.744-7.795-9.922-8.427 5.067-5.268 4.01-14.117 20.268-1.686 2.322-4.213 11.19-1.686 2.743 4.424 8.234 5.9-15.2 17.067-21.323 29.918 8.867 9.482.845 4.003-21.534 5.056-4.856 12.221-18.156 13.906-3.378 15.801 2.533 4.004 8.234-.42 6.123-3.584 2.955-9.48 7.811-5.057 13.511-2.318 5.067-8.006 10.979-3.582-1.267-9.271 29.978 4.004 4.855-2.318 21.957-13.484 18.366-10.536.845 17.067-5.066 7.164 1.055 6.32 9.5 3.161v10.535l-6.967 8.849-.634 8.218h20.9c1.901 0 13.301 10.956 13.301 10.956l8.445 1.052 19.845 18.331 7.177-2.107 1.267-5.057-4.433-4.845-9.29-8.64.634-17.276-14.567-9.481-2.111-7.164 4.222-1.686 3.8-3.792 14.357-5.688 1.477-8.218-8.233-2.107-5.489 5.057-8.867-1.897-9.29 11.59-7.6 2.106-8.233-5.9-5.7-9.48 10.345-5.479 4.011-3.582-1.69-7.164-6.966-1.264-2.956 4.846-7.177 1.053-.211-15.801 7.388-1.687 10.767 6.322 14.99-.421 13.511-9.272 11.822 1.687 9.29-4.215 1.899-6.11 4.856-.21-.845 6.953 4.434 1.474 3.8-8.216 2.534 4.635-6.545 9.06 1.9 16.434 13.3-.633 4.856 4.847.21 8.638 9.29-.843 2.533 2.529-8.022 4.846-1.478 1.686 2.111 10.956 21.111-16.014 4.223-8.638 1.9 26.758 8.233-6.11 2.533-19.173 14.357-26.547 9.71 2.95 1.901-3.793-13.3-21.28-3.8 1.474.211 7.796h-3.379l-6.755-9.903-7.388-20.016 16.255-17.91 14.145-.632.422 9.061-11.822 17.277 4.433 2.95 5.91-8.85 5.7-8.006 1.901-6.954 2.533-1.474 2.324 5.9 13.722-3.582-8.656-1.475-1.267-3.793 6.545-6.742-23.434-26.126v-6.532l9.289 6.11-3.8-8.85 1.267-3.16 25.545 33.291 3.377-1.476.633-13.273 2.745-4.635h10.344L1106.8 483.24l.21-3.582 8.656 1.685 1.478-2.528-6.122-7.164 3.8-1.054 1.477-4.002-9.078-3.16 2.533-10.114-1.477-6.11-8.656-.632-.21 13.062h-10.767l-1.478-16.433h-10.978l-2.744-5.268-1.9-8.428-13.512-1.054.422-5.478-9.5-2.106.844-10.325 10.978-1.474 20.9 17.066-2.533 4.003 1.689 5.268 8.023-2.53 4.855-10.323 1.69-7.796-9.923-7.795-10.556-8.006 1.056-19.806 5.489-7.585 10.344-1.264 8.656 16.012 24.912 1.686 13.933 10.746 9.078 2.528 3.59-4.214-4.646-8.85v-8.638l3.59-10.534 10.766-4.214-.844-5.479-23.645-.21-5.277-3.583-.212-5.899 26.39.21 2.744 4.004 4.645 1.264 6.755-5.688 1.688-5.058-1.688-9.27-18.367-20.226 27.234-.422 2.111 8.428 6.756.42 4.01-3.791-.422-5.268-3.377-4.214 11.4-3.792 12.667-1.685.21 7.163-9.5 2.95-1.477 3.582 2.322 3.37 15.834-1.685 2.533-2.739 9.923-13.696.845-12.43-20.057-34.344-19.844-1.053-3.379 2.529-18.788-1.265-21.956 18.12-7.179-3.37 5.278-11.378 5.279-9.061 6.966-3.582 17.523-1.474 1.477 5.056 6.756.633 16.256-7.375 9.711-5.689-9.5-12.641 10.767-.212.21-5.688 6.546-1.054-1.056-5.266-1.267-22.967 9.078-26.126 24.49-1.264v-3.793l23.644-5.688 4.645-15.17-26.812-16.857 10.556.211.21-31.394-10.977-6.953 31.668-31.182-7.812.21ZM46.792 928.442l-1.266 5.267 4.222 2.108h6.333v-3.688zm-4.011 13.484-1.266 8.429 4.01 3.581 3.8-2.528 4.434-9.482zm124.347 45.721-4.012 18.7-5.805 11.43-8.762 12.642 3.589 11.167 7.178 5.689 1.478-2.95 20.479-18.33 5.91 8.006 6.123 1.053 5.277-4.846 1.056-6.953-7.177-3.16.844-11.378-10.556-13.484-8.656-5.689z"/>
   <path d="M236.232 985.892v-7.164l9.43-10.816 5.489-5.479h7.318l3.942 4.215 5.207-2.107v-8.568h9.289l5.63 3.932v14.187l-3.519 8.008-3.237-.141-3.378-4.776-4.222-.14-1.408 4.073-5.348 11.939-7.459 1.404-12.527-1.404-3.94-2.95zm243.556-110.756-1.69 4.845 1.69 5.268h5.49l4.01-4.003-4.01-6.11zm63.123-10.956 2.956 7.163-1.478 9.692-3.589 9.271 2.533 10.745 8.023 7.375 4.856-1.475 5.278-10.325 5.066-11.377-2.111-8.85-10.766-7.795-3.378-5.478zM506.6 962.153l2.533 4.846 11.189-1.054 9.711-3.792h7.179L542.7 967l2.744 1.686v25.775l3.8-1.967 4.433-6.742 7.811-.421 2.534-4.214 7.178.632 2.534 3.371 5.066-2.317v-9.061l7.178-.421 3.378 3.371v6.11l-6.123 3.793-.422 8.849 4.223 3.371 2.322 4.635-2.322 5.478-10.135 7.375h-9.288l-15.412-10.324-4.222-5.9-7.177 4.635-6.756.633-6.545-.633-.21 9.272-13.3 7.585-5.068 1.895-3.589 3.583h-9.29l-6.755-7.375 3.167-4.424 5.067-.843 4.855.632v-2.95l-7.6-1.897.423-36.66-2.534-2.108-.844-2.949 11.61-8.217zm-22.906-52.463 5.595 14.327 6.755 12.431-.844 6.532-1.267 4.003-10.24 1.896v23.599l-.949 8.216-16.678-1.474-5.489-20.649-8.867-8.427v-8.007l-9.079-8.428-9.077-.422-2.533-10.744-6.967-2.53v-8.637s6.545-4.214 7.6-4.214c1.056 0 6.333 1.264 6.333 1.264l1.9-4.004 2.744 4.004 1.056 6.742 3.378 4.214-2.955 8.85.633 4.845 5.7-4.846h5.489l5.278-1.686-7.177-8.849-6.334-1.054-1.9-8.216 1.478-10.746 8.444 1.474 1.478 3.161-.423 9.271-1.688 2.107 2.744.421 3.167-5.688 22.695 1.264Zm282.576-1.264c1.056.21 8.023-1.264 8.023-1.264l1.69-3.582s2.743 1.054 3.377 1.264c.633.21 4.222 5.689 4.222 5.689l-3.377 6.531-6.968-2.74-8.656-2.948 1.69-2.95Zm20.479 32.236 8.233 2.318 6.123 4.845.844 5.69-3.8 1.054-2.744-3.161-18.157-.422v-5.056l2.745-5.268zm2.85-24.652 10.24-7.585v-19.383l5.065-3.266h10.346l4.644 5.584v18.962l1.9 5.689-3.59 3.16-7.177 2.318 1.478 4.845-2.956 2.53-12.245-2.108zM465.362 778.567l7.038-7.866 6.332-3.09 3.801 1.123-1.127 4.354-9.71 6.743-3.238 2.107zM786.82 604.953l-3.168 4.565-2.04 3.582v3.09l1.618 3.231 3.59 3.582 5.136-.562 4.293-3.16 1.055-4.917-.28-3.3-3.238-4.706-2.464-1.897zm-20.55 125.434 8.585 3.09 5.63 3.09v8.288l-.562 4.495-4.645 1.545h-7.882l-7.88-9.41-2.534-4.917 1.83-3.653 3.799-2.528zm54.89 1.686 6.475-1.123 4.363 3.23 2.11 7.585 1.126 9.13-1.829 5.198h-7.741l-3.237-4.074 2.533-4.916 1.83-2.248-.562-6.04-4.364-2.81zm45.179-48.46 6.756-3.512 7.6-.562 2.252 4.074-1.407 4.635-6.897 4.214h-7.741l-.563-3.371-3.237-1.123zm43.349 24.441 4.222 3.511 2.815 1.546 6.897-1.968 1.547 4.496-6.332 5.619-9.15 1.264-7.6-7.234 2.112-4.706zm-29.978 11.377 5.348 4.214.562 6.742-4.362 4.215h-5.208l-4.362-4.215v-6.18l1.97-4.776h4.996zm-21.675 35.397 10.134-2.81h9.852v5.338l-2.956 4.074-2.04 3.09h-4.434l-6.615-4.214-2.251-.702zm-1.548 16.996 10.274-2.248 6.263 1.125 8.093 4.494 3.237 5.478-3.096 5.62-3.942 1.123-7.88-5.197-5.349-2.81-6.052-.912zm32.089 13.485 6.193 1.405 1.97 3.23.845 4.073-2.393 3.091h-2.815l-3.8-5.057v-3.933zm62.35-4.074 4.926 3.09v3.934l-1.83 2.949-4.786-1.826-3.096-4.916 1.126-2.247zm28.148-12.922 8.022 2.81 7.32 4.073-.704 6.04-3.8 2.809-9.852-1.405-5.49-4.916-1.97-7.304 2.955-2.107zm-9.57-24.793-.845-7.374 4.926-4.073 6.615-3.09 2.674 3.933-.704 6.742-8.163 6.883h-2.814zm30.682-71.285.844-12.36 5.207-.844 1.267 5.057 5.489 1.546v7.585l-6.404.702zm8.444 11.799 4.364 5.76 5.77 8.006-1.97 4.776h-6.194l-4.785-7.024-3.8-5.478 1.126-4.073zm27.867 97.201 9.993 9.973v5.9l-2.533 2.388-7.46-4.495-9.57-8.147 2.956-4.355zm3.237 28.795 6.756 7.866-1.97 5.057-8.585 5.478-2.252-1.545.844-16.855zM842.22 926.967s12.93-10.166 13.089-10.377c.158-.21 10.133-3.95 10.133-3.95s3.958.632 4.116.737c.159.106 3.167 2.37 3.273 2.581.105.21-1.003 6.742-1.003 6.742l-8.18.896-5.859 3.687-8.55 2.897-4.698-.421-2.322-2.792Zm110.043 31.043c.14-.211 10.204-8.147 10.204-8.147l6.895-3.441 2.674 4.776-3.377 6.811-6.509 7.235-9.887 1.615-1.478-5.058 1.478-3.792Zm-138.28-116.796 7.037-.984 3.237 3.793 3.66 7.585 1.688 1.685h7.038l2.954-7.304-7.177-4.635-2.111-4.355 6.334-5.618h3.94l3.66-5.479h4.644l1.267 4.075 13.37.28.564-2.668 5.066-.703 1.97 3.091 11.54 1.123 4.223 3.792 6.756-3.65 9.992-3.935 2.112 7.164-2.392 4.074-12.808 7.865-4.363 6.883-2.112 8.006-.421 8.148h4.081l9.852-6.882 9.852-6.041 6.474-4.495 3.66-3.23 6.614-1.826 3.238-6.462 17.31-.42 3.801-.564 2.251-2.387 2.535 1.405v4.073s2.25 3.09 2.533 3.09c.282 0 9.007 1.124 9.007 1.124l-1.97 4.776-9.43 7.445-13.37 5.197-7.319 4.354-7.179 2.388h-16.888l2.393 10.254 9.57-1.405.422-2.247 7.6-.562L942.2 888.55l3.94 8.849-.28 12.922-.424 11.09-3.377 5.767-5.49 5.197-8.022 2.81-6.474-3.231-9.57-11.8-3.66-5.337h-5.067l-13.51-17.84-7.882-8.146-6.896-3.055-6.897 2.634-7.741 5.197-5.63.281h-12.104l-3.94-4.073-9.15-1.125s-2.813-3.651-2.813-4.776c0-1.123-.564-8.99-.564-8.99l-4.855.984-4.434 4.635-11.664.422-7.618-3.231-4.221-8.427 1.266-5.9 5.911-6.461 5.49-4.635 4.503-6.603 2.956-4.494Z" fill="none"/>
   <path d="m878.02 820.85v4.214l5.63 3.372h2.675l0.844-3.794v-3.792l-6.615-0.983zm207.88-437.9c2.111 0.842 12.666 6.11 12.666 6.11l7.6 7.374v12.642h-8.021l-2.112-13.063-12.455-8.429-1.056-4.635h3.378zm34.201 182.04h14.99l17.1 3.162 10.554 12.22 5.068 2.738 7.6 2.318-1.69 10.746-7.177 3.581-6.334-5.688-8.022-10.324-4.433 2.738-1.9 7.375-7.178-3.16-11.612-8.323-6.966-10.85z"/>
   <path d="m322.09 726.17 7.6 2.809"/>
   <path d="M223.284 691.479h15.904l7.881-16.575 13.794-10.816h16.326l27.867-18.4 8.163 1.263 7.318 35.96.986 9.691-8.304 12.712m33.989 35.046c1.9.984 17.382 7.445 17.382 7.445l17.875-10.534h7.459l8.888 9.404"/>
   <path d="m283.86 659.684-4.42-19.474-11.4-17.207-4.644-6.813v-24.862l-2.955-18.12-19.423-21.07h-6.334l21.534-61.945-.844-7.585-45.18-96.076 45.18-21.492-8.346-20.647 3.912-12.643-16.256-55.623-6.333-24.02-7.178-25.284-7.6-19.383-9.29-12.643L206.818 183"/>
   <path d="m255.37 482.61h24.489l-5.066 16.012 51.09-8.006 15.199-4.635 23.645-18.963 40.534-10.113 48.134 18.12v15.17l16.466 18.015-1.315 15.185m-8.184 190.98-8.542 20.226"/>
   <path d="m453.4 475.02 13.934-25.284-4.646-17.699 7.179-2.528 16.889-20.438-5.49-28.022 26.18-22.755-4.645-3.37-1.267-3.373-8.867-3.37 33.779-32.448 5.489-12.641 31.244-25.706v-7.584l-11.4-19.385 2.112-15.17-4.646-16.433 13.934-18.12-4.222-8.007-5.49-3.792-18.154 4.635-24.49 9.691-12.244 9.692-8.867-4.635-38.845 0.843-9.923-4.846m325.54 97.131-64.812-8.85v14.328l-27.023 32.026-24.911 19.383h-13.511l-4.646-2.528-7.177 7.586 4.222 6.32-0.423 4.636-3.8 6.742h20.48l24.277 25.705-24.278 78.8 4.856 6.742 2.533 31.095 2.956 16.855 11.821 11.889 18.157 3.371h28.712l-1.267 33.71 18.577-3.37 2.507 24.981"/>
   <path d="m564.49 526.87 9.1-10.265 29.838 18.821 41.448-49.865"/>
  </g>
 </g>
</svg>
